<?xml version="1.0" encoding="UTF-8"?>
<svg xmlns="http://www.w3.org/2000/svg" version="1.1" viewBox="0 0 50 50">
  <defs>
    <style>
      .cls-1 {
        fill: #fff;
      }
    </style>
  </defs>
  <!-- Generator: Adobe Illustrator 28.7.1, SVG Export Plug-In . SVG Version: 1.2.0 Build 142)  -->
  <g>
    <g id="Layer_1">
      <path class="cls-1" d="M25,5C14,5,5,14,5,25s6.5,17.2,15.2,19.4c0-.3-.2-.6-.2-1v-3.4h-2.5c-1.4,0-2.6-.6-3.2-1.7-.7-1.2-.8-3.1-2.4-4.2-.5-.4-.1-.8.4-.8,1,.3,1.9,1,2.7,2,.8,1,1.2,1.3,2.7,1.3s1.8,0,2.8-.2c.5-1.4,1.5-2.7,2.6-3.3-6.7-.7-9.8-4-9.8-8.5s.8-3.8,2.2-5.4c-.5-1.6-1-4.8.2-6,3,0,4.8,1.9,5.2,2.5,1.5-.5,3.1-.8,4.9-.8s3.4.3,4.9.8c.4-.5,2.2-2.5,5.2-2.5,1.2,1.2.6,4.4.2,6,1.4,1.6,2.2,3.4,2.2,5.4,0,4.5-3.2,7.8-9.8,8.5,1.8,1,3.2,3.6,3.2,5.7v4.6c0,.2,0,.3,0,.4,7.8-2.7,13.4-10.1,13.4-18.9S36,5,25,5Z"/>
    </g>
  </g>
</svg>