<?xml version="1.0" encoding="UTF-8"?>
<svg xmlns="http://www.w3.org/2000/svg" version="1.1" viewBox="0 0 50 50">
  <defs>
    <style>
      .cls-1 {
        stroke-linejoin: round;
      }

      .cls-1, .cls-2 {
        fill: none;
        stroke: #fff;
        stroke-linecap: round;
        stroke-width: 4px;
      }

      .cls-3 {
        fill: #231f20;
      }

      .cls-2 {
        stroke-miterlimit: 133.3;
      }

      .cls-4 {
        display: none;
      }
    </style>
  </defs>
  <!-- Generator: Adobe Illustrator 28.7.1, SVG Export Plug-In . SVG Version: 1.2.0 Build 142)  -->
  <g>
    <g id="Layer_1">
      <g class="cls-4">
        <g id="Layer_1-2" data-name="Layer_1">
          <path class="cls-3" d="M5.5,7c-2.5,0-4.5,2-4.5,4.5v.4l24,17.1,24-17.1v-.4c0-2.5-2-4.5-4.5-4.5H5.5ZM6.4,9h37.3l-18.6,13L6.4,9ZM1,14v24.5c0,2.5,2,4.5,4.5,4.5h39c2.5,0,4.5-2,4.5-4.5V14l-6,4.3v22.7H7v-22.7L1,14Z"/>
        </g>
      </g>
      <path class="cls-1" d="M6.9,13.7l14,10.5c2.4,1.8,5.7,1.8,8.1,0l14-10.5"/>
      <rect class="cls-2" x="4.7" y="9.2" width="40.7" height="31.6" rx="4.5" ry="4.5"/>
    </g>
  </g>
</svg>